<svg width="220" height="180" viewBox="0 0 220 180" fill="none" xmlns="http://www.w3.org/2000/svg">
  <ellipse cx="85" cy="32" rx="20" ry="17" fill="#221F1F"/>
  <path d="M61 40C67 28 85 21 102 27C113 31 120 41 120 54V62H61V40Z" fill="#2D2A2A"/>
  <path d="M67 52C67 36 80 23 96 23C112 23 125 36 125 52C125 69 112 82 96 82C80 82 67 69 67 52Z" fill="#F4B37D"/>
  <circle cx="89" cy="50" r="2.8" fill="#2C2727"/>
  <circle cx="104" cy="50" r="2.8" fill="#2C2727"/>
  <path d="M89 63C92 67 100 67 104 63" stroke="#A34B3A" stroke-width="2.8" stroke-linecap="round"/>
  <path d="M61 51L132 51" stroke="#FFFFFF" stroke-width="11" stroke-linecap="round"/>
  <path d="M61 51L132 51" stroke="#D64338" stroke-width="6" stroke-linecap="round"/>

  <path d="M69 86C72 76 81 70 91 70H100C111 70 121 76 124 86L130 108H63L69 86Z" fill="#2F74D4"/>
  <path d="M64 92C61 96 60 101 61 106L65 124H82L77 96L64 92Z" fill="#2A63B4"/>
  <path d="M128 92C131 96 132 101 131 106L127 124H110L115 96L128 92Z" fill="#2A63B4"/>

  <path d="M129 102C141 103 152 106 164 108" stroke="#F4B37D" stroke-width="9" stroke-linecap="round"/>
  <circle cx="166" cy="109" r="6" fill="#F4B37D"/>

  <path d="M77 124H94L96 164H76L77 124Z" fill="#D57222"/>
  <path d="M97 124H114L117 164H99L97 124Z" fill="#C9651A"/>
  <ellipse cx="82" cy="168" rx="12" ry="5.5" fill="#F4B37D"/>
  <ellipse cx="108" cy="168" rx="12" ry="5.5" fill="#F4B37D"/>
</svg>
